<svg width="29" height="38" viewBox="0 0 29 38" fill="none" xmlns="http://www.w3.org/2000/svg">
<path fill-rule="evenodd" clip-rule="evenodd" d="M18.9746 25.3666L18.9684 25.3485C18.8662 25.0513 18.6596 24.7427 18.2871 24.4303L18.2799 24.4243L18.2729 24.4181C17.8855 24.0807 17.2974 23.7133 16.4695 23.3289C15.6482 22.9476 14.56 22.5405 13.1921 22.1102L13.1846 22.1078C11.6052 21.5973 10.1021 21.0218 8.676 20.3809L8.67213 20.3791C7.2341 19.7255 5.94636 18.9596 4.81494 18.0778L4.80851 18.0728L4.80216 18.0677C3.66013 17.1472 2.74486 16.0715 2.06884 14.8408L2.0636 14.8313C1.38009 13.5542 1.05469 12.0979 1.05469 10.4922C1.05469 8.91921 1.40172 7.46542 2.11113 6.15198C2.8093 4.8438 3.78433 3.73324 5.02076 2.82232C6.25207 1.89957 7.68941 1.20266 9.31781 0.720791L9.32045 0.72001C10.9707 0.236619 12.762 0 14.6875 0C17.323 0 19.6726 0.47496 21.7086 1.45903C23.7285 2.43531 25.3274 3.79166 26.4681 5.53616C27.6304 7.28947 28.2031 9.28834 28.2031 11.5V12.5H19.2188V11.5C19.2188 10.6437 19.0393 9.94287 18.7144 9.36526L18.7083 9.35456L18.7026 9.34372C18.4007 8.7748 17.9323 8.31153 17.2506 7.95807L17.2438 7.95453C16.6012 7.61506 15.7278 7.41406 14.5703 7.41406C13.4468 7.41406 12.5851 7.58793 11.9425 7.88452L11.9352 7.88787L11.9279 7.8911C11.2583 8.18727 10.8154 8.56479 10.5338 8.99811L10.5274 9.00786C10.2358 9.44527 10.0859 9.93796 10.0859 10.5156C10.0859 10.9188 10.1806 11.2595 10.3592 11.5612C10.5696 11.8897 10.9017 12.2335 11.3953 12.5802C11.9021 12.9364 12.5477 13.2873 13.345 13.6269C14.1496 13.9696 15.092 14.3095 16.1755 14.6454C18.0749 15.2201 19.7606 15.8718 21.2264 16.6046C22.7139 17.3403 23.984 18.1794 25.02 19.1305C26.0686 20.0932 26.8726 21.1979 27.4165 22.4436C27.9641 23.698 28.2266 25.0953 28.2266 26.6172C28.2266 28.234 27.9109 29.7169 27.2562 31.044C26.6049 32.3642 25.6633 33.478 24.4479 34.3809C23.2415 35.277 21.8216 35.9433 20.2057 36.3931C18.5879 36.8434 16.8004 37.0625 14.8516 37.0625C13.0765 37.0625 11.3259 36.8323 9.60171 36.3725L9.59314 36.3702C7.85349 35.8897 6.26154 35.166 4.82367 34.1963L4.81917 34.1932C3.36413 33.2004 2.19709 31.9299 1.32529 30.3915C0.428414 28.8087 0 26.9682 0 24.9062V23.9062H9.05469V24.9062C9.05469 25.8711 9.20437 26.6218 9.45988 27.1936C9.72427 27.7853 10.083 28.2405 10.5315 28.5841C11.0199 28.9462 11.611 29.2208 12.3221 29.3955C13.0781 29.5773 13.9196 29.6719 14.8516 29.6719C15.9865 29.6719 16.8366 29.5103 17.4488 29.2409L17.4555 29.238C18.1045 28.9581 18.5116 28.6023 18.7577 28.2025L18.7625 28.1946L18.7675 28.1869C19.0488 27.7481 19.1953 27.25 19.1953 26.6641C19.1953 26.1572 19.1174 25.7356 18.9815 25.3844L18.9746 25.3666ZM12.0859 30.3672C11.2578 30.1641 10.5391 29.8359 9.92969 29.3828C9.33594 28.9297 8.875 28.3359 8.54688 27.6016C8.21875 26.8672 8.05469 25.9688 8.05469 24.9062H1C1 25.2477 1.01258 25.5811 1.03773 25.9062C1.15416 27.4113 1.54002 28.742 2.19531 29.8984C2.99219 31.3047 4.05469 32.4609 5.38281 33.3672C6.72656 34.2734 8.21875 34.9531 9.85938 35.4062C11.5 35.8438 13.1641 36.0625 14.8516 36.0625C16.7266 36.0625 18.4219 35.8516 19.9375 35.4297C21.4531 35.0078 22.7578 34.3906 23.8516 33.5781C24.9453 32.7656 25.7812 31.7734 26.3594 30.6016C26.9375 29.4297 27.2266 28.1016 27.2266 26.6172C27.2266 25.2109 26.9844 23.9531 26.5 22.8438C26.0156 21.7344 25.2969 20.7422 24.3438 19.8672C23.3906 18.9922 22.2031 18.2031 20.7812 17.5C19.375 16.7969 17.7422 16.1641 15.8828 15.6016C14.7734 15.2578 13.7969 14.9062 12.9531 14.5469C12.1094 14.1875 11.3984 13.8047 10.8203 13.3984C10.2422 12.9922 9.80469 12.5547 9.50781 12.0859C9.22656 11.6172 9.08594 11.0938 9.08594 10.5156C9.08594 9.75 9.28906 9.0625 9.69531 8.45312C10.1016 7.82812 10.7109 7.33594 11.5234 6.97656C12.3359 6.60156 13.3516 6.41406 14.5703 6.41406C15.8359 6.41406 16.8828 6.63281 17.7109 7.07031C18.5547 7.50781 19.1797 8.10938 19.5859 8.875C20.0078 9.625 20.2188 10.5 20.2188 11.5H27.2031C27.2031 11.1603 27.1885 10.827 27.1592 10.5C27.0134 8.87152 26.5046 7.40017 25.6328 6.08594C24.6016 4.50781 23.1484 3.26562 21.2734 2.35938C19.3984 1.45312 17.2031 1 14.6875 1C12.8438 1 11.1484 1.22656 9.60156 1.67969C8.07031 2.13281 6.74219 2.78125 5.61719 3.625C4.49219 4.45312 3.61719 5.45312 2.99219 6.625C2.36719 7.78125 2.05469 9.07031 2.05469 10.4922C2.05469 11.9609 2.35156 13.25 2.94531 14.3594C3.55469 15.4688 4.38281 16.4453 5.42969 17.2891C6.49219 18.1172 7.71094 18.8438 9.08594 19.4688C10.4766 20.0938 11.9453 20.6562 13.4922 21.1562C14.8828 21.5938 16.0156 22.0156 16.8906 22.4219C17.7656 22.8281 18.4453 23.2422 18.9297 23.6641C19.4141 24.0703 19.7422 24.5234 19.9141 25.0234C20.1016 25.5078 20.1953 26.0547 20.1953 26.6641C20.1953 27.4297 20 28.1172 19.6094 28.7266C19.2344 29.3359 18.6484 29.8125 17.8516 30.1562C17.0703 30.5 16.0703 30.6719 14.8516 30.6719C13.8516 30.6719 12.9297 30.5703 12.0859 30.3672Z" fill="black"/>
</svg>
