<svg width="170" height="40" viewBox="0 0 170 40" fill="none" xmlns="http://www.w3.org/2000/svg">
<path d="M20.8125 27.0703C20.8125 26.4609 20.7188 25.9141 20.5312 25.4297C20.3594 24.9297 20.0312 24.4766 19.5469 24.0703C19.0625 23.6484 18.3828 23.2344 17.5078 22.8281C16.6328 22.4219 15.5 22 14.1094 21.5625C12.5625 21.0625 11.0938 20.5 9.70312 19.875C8.32812 19.25 7.10938 18.5234 6.04688 17.6953C5 16.8516 4.17188 15.875 3.5625 14.7656C2.96875 13.6562 2.67188 12.3672 2.67188 10.8984C2.67188 9.47656 2.98438 8.1875 3.60938 7.03125C4.23438 5.85938 5.10938 4.85937 6.23438 4.03125C7.35938 3.1875 8.6875 2.53906 10.2188 2.08594C11.7656 1.63281 13.4609 1.40625 15.3047 1.40625C17.8203 1.40625 20.0156 1.85937 21.8906 2.76562C23.7656 3.67188 25.2188 4.91406 26.25 6.49219C27.2969 8.07031 27.8203 9.875 27.8203 11.9062H20.8359C20.8359 10.9062 20.625 10.0312 20.2031 9.28125C19.7969 8.51562 19.1719 7.91406 18.3281 7.47656C17.5 7.03906 16.4531 6.82031 15.1875 6.82031C13.9688 6.82031 12.9531 7.00781 12.1406 7.38281C11.3281 7.74219 10.7188 8.23437 10.3125 8.85938C9.90625 9.46875 9.70312 10.1562 9.70312 10.9219C9.70312 11.5 9.84375 12.0234 10.125 12.4922C10.4219 12.9609 10.8594 13.3984 11.4375 13.8047C12.0156 14.2109 12.7266 14.5938 13.5703 14.9531C14.4141 15.3125 15.3906 15.6641 16.5 16.0078C18.3594 16.5703 19.9922 17.2031 21.3984 17.9062C22.8203 18.6094 24.0078 19.3984 24.9609 20.2734C25.9141 21.1484 26.6328 22.1406 27.1172 23.25C27.6016 24.3594 27.8438 25.6172 27.8438 27.0234C27.8438 28.5078 27.5547 29.8359 26.9766 31.0078C26.3984 32.1797 25.5625 33.1719 24.4688 33.9844C23.375 34.7969 22.0703 35.4141 20.5547 35.8359C19.0391 36.2578 17.3438 36.4688 15.4688 36.4688C13.7812 36.4688 12.1172 36.25 10.4766 35.8125C8.83594 35.3594 7.34375 34.6797 6 33.7734C4.67188 32.8672 3.60938 31.7109 2.8125 30.3047C2.01562 28.8984 1.61719 27.2344 1.61719 25.3125H8.67188C8.67188 26.375 8.83594 27.2734 9.16406 28.0078C9.49219 28.7422 9.95312 29.3359 10.5469 29.7891C11.1562 30.2422 11.875 30.5703 12.7031 30.7734C13.5469 30.9766 14.4688 31.0781 15.4688 31.0781C16.6875 31.0781 17.6875 30.9062 18.4688 30.5625C19.2656 30.2188 19.8516 29.7422 20.2266 29.1328C20.6172 28.5234 20.8125 27.8359 20.8125 27.0703ZM40.1016 1.875V36H33.0938V1.875H40.1016ZM49.8984 1.875H55.8516L64.6172 26.9297L73.3828 1.875H79.3359L67.0078 36H62.2266L49.8984 1.875ZM46.6875 1.875H52.6172L53.6953 26.2969V36H46.6875V1.875ZM76.6172 1.875H82.5703V36H75.5391V26.2969L76.6172 1.875ZM102.023 23.8359H93.3281V18.3516H102.023C103.367 18.3516 104.461 18.1328 105.305 17.6953C106.148 17.2422 106.766 16.6172 107.156 15.8203C107.547 15.0234 107.742 14.125 107.742 13.125C107.742 12.1094 107.547 11.1641 107.156 10.2891C106.766 9.41406 106.148 8.71094 105.305 8.17969C104.461 7.64844 103.367 7.38281 102.023 7.38281H95.7656V36H88.7344V1.875H102.023C104.695 1.875 106.984 2.35938 108.891 3.32812C110.812 4.28125 112.281 5.60156 113.297 7.28906C114.312 8.97656 114.82 10.9062 114.82 13.0781C114.82 15.2812 114.312 17.1875 113.297 18.7969C112.281 20.4062 110.812 21.6484 108.891 22.5234C106.984 23.3984 104.695 23.8359 102.023 23.8359ZM141.609 30.5156V36H124.43V30.5156H141.609ZM126.703 1.875V36H119.672V1.875H126.703ZM168.539 30.5156V36H150.375V30.5156H168.539ZM152.672 1.875V36H145.641V1.875H152.672ZM166.172 15.7734V21.1172H150.375V15.7734H166.172ZM168.516 1.875V7.38281H150.375V1.875H168.516Z" fill="#333333"/>
</svg>
